<svg xmlns="http://www.w3.org/2000/svg" fill="none" viewBox="0 0 128 128">
    <path d="M50.4 78.5a75.1 75.1 0 0 0-28.5 6.9l24.2-65.7c.7-2 1.9-3.2 3.4-3.2h29c1.5 0 2.7 1.2 3.4 3.2l24.2 65.7s-13.1-6.5-28.5-6.9L67 45.5c-.4-1.7-1.6-2.8-2.9-2.8-1.3 0-2.5 1.1-2.9 2.7L50.4 78.5Zm-1.1 28.2Zm-4.2-20.2c-2 6.6-.6 15.8 4.2 20.2a17.5 17.5 0 0 1 .2-7.8c1.5-5.6 5.6-9.8 11.3-11.4-5.3-1.4-12.1-1.6-15.7-.9Zm34.3-.9c-3.6-.7-10.4-.5-15.7.9 5.7 1.6 9.8 5.8 11.3 11.4 1 3.8.7 7.2.2 7.8 4.8-4.4 6.2-13.6 4.2-20.1Z" />
    <path fill="url(#gradient)" d="M50.4 78.5a75.1 75.1 0 0 0-28.5 6.9l24.2-65.7c.7-2 1.9-3.2 3.4-3.2h29c1.5 0 2.7 1.2 3.4 3.2l24.2 65.7s-13.1-6.5-28.5-6.9L67 45.5c-.4-1.7-1.6-2.8-2.9-2.8-1.3 0-2.5 1.1-2.9 2.7L50.4 78.5Zm-1.1 28.2Zm-4.2-20.2c-2 6.6-.6 15.8 4.2 20.2a17.5 17.5 0 0 1 .2-7.8c1.5-5.6 5.6-9.8 11.3-11.4-5.3-1.4-12.1-1.6-15.7-.9Zm34.3-.9c-3.6-.7-10.4-.5-15.7.9 5.7 1.6 9.8 5.8 11.3 11.4 1 3.8.7 7.2.2 7.8 4.8-4.4 6.2-13.6 4.2-20.1Z" />
    <defs>
        <linearGradient id="gradient" x1="0" x2="0" y1="0" y2="1">
            <stop offset="0%" stop-color="#4F46E5" />
            <stop offset="100%" stop-color="#7C3AED" />
        </linearGradient>
    </defs>
</svg>
